<svg width="512" height="512" viewBox="0 0 512 512" fill="none" xmlns="http://www.w3.org/2000/svg">
<path id="Vector" d="M256 159.1C202.98 159.1 160.9 202.08 160.9 254.2C160.9 306.32 202.1 351.1 256 351.1C309.9 351.1 351.1 308.12 351.1 256C351.1 203.88 309 159.1 256 159.1ZM509.3 347L446.1 255.1L509.25 164.09C515.582 154.965 510.354 142.35 499.424 140.37L390.424 120.67L370.724 11.67C368.749 0.740005 356.134 -4.49 347.004 1.846L256 65.89L164.1 2.736C154.975 -3.596 142.36 1.62901 140.38 12.56L121.6 121.6L12.5601 141.3C1.63308 143.2 -3.59592 155.9 2.73608 164.1L65.8901 256L2.74008 347.01C-3.59192 356.135 1.63508 368.75 12.5641 370.73L121.564 390.43L141.264 499.43C143.239 510.36 155.854 515.59 164.984 509.254L256 446.1L347.01 509.25C356.137 515.584 368.76 510.357 370.73 499.428L390.43 390.428L499.43 370.728C510.4 368.8 515.6 356.1 509.3 347ZM256 383.1C185.31 383.1 128.9 325.79 128.9 256C128.9 185.31 186.21 128.9 256 128.9C325.79 128.9 383.1 186.2 383.1 256C383.1 326.7 326.7 383.1 256 383.1Z" fill="url(#paint0_linear_601_148)"/>
<defs>
<linearGradient id="paint0_linear_601_148" x1="256.01" y1="-0.892395" x2="256.01" y2="511.992" gradientUnits="userSpaceOnUse">
<stop stop-color="#FEFEFE"/>
<stop offset="1" stop-color="#C4B8B8" stop-opacity="0"/>
</linearGradient>
</defs>
</svg>
